<?xml version="1.0" encoding="UTF-8" standalone="no"?>
<!-- Svg Vector Icons : http://www.onlinewebfonts.com/icon -->

<svg
   version="1.1"
   x="0px"
   y="0px"
   viewBox="0 0 16 16"
   xml:space="preserve"
   id="svg3"
   sodipodi:docname="foobar.svg"
   width="16"
   height="16"
   inkscape:version="1.3 (0e150ed, 2023-07-21)"
   xmlns:inkscape="http://www.inkscape.org/namespaces/inkscape"
   xmlns:sodipodi="http://sodipodi.sourceforge.net/DTD/sodipodi-0.dtd"
   xmlns:xlink="http://www.w3.org/1999/xlink"
   xmlns="http://www.w3.org/2000/svg"
   xmlns:svg="http://www.w3.org/2000/svg"><defs
   id="defs3"><linearGradient
     id="linearGradient3"
     inkscape:collect="always"><stop
       style="stop-color:#f029e9;stop-opacity:0.91338581;"
       offset="0"
       id="stop3" /><stop
       style="stop-color:#02021a;stop-opacity:1;"
       offset="1"
       id="stop4" /></linearGradient><linearGradient
     inkscape:collect="always"
     xlink:href="#linearGradient3"
     id="linearGradient4"
     x1="40.101455"
     y1="128.15"
     x2="215.90926"
     y2="128.15"
     gradientUnits="userSpaceOnUse" /></defs><sodipodi:namedview
   id="namedview3"
   pagecolor="#ffffff"
   bordercolor="#000000"
   borderopacity="0.25"
   inkscape:showpageshadow="2"
   inkscape:pageopacity="0.0"
   inkscape:pagecheckerboard="0"
   inkscape:deskcolor="#d1d1d1"
   inkscape:zoom="14.856943"
   inkscape:cx="5.4856506"
   inkscape:cy="9.254932"
   inkscape:window-width="1440"
   inkscape:window-height="762"
   inkscape:window-x="0"
   inkscape:window-y="25"
   inkscape:window-maximized="1"
   inkscape:current-layer="svg3" />&#10;<metadata
   id="metadata1"> Svg Vector Icons : http://www.onlinewebfonts.com/icon </metadata>&#10;<g
   id="g3"
   transform="matrix(0.06053991,0,0,0.06053991,0.37375024,0.4272209)"
   style="fill:url(#linearGradient4)"><g
     id="g2"
     style="fill:url(#linearGradient4)"><g
       id="g1"
       style="fill:url(#linearGradient4)"><path
         fill="#000000"
         d="m 75.7,23.2 c -23.3,41.2 -36.9,80.1 -35.5,102 1.3,23.1 19.6,54.6 49.9,86 10.6,11.1 36.5,34.9 37.9,34.9 1.1,0 24.6,-21.6 35.5,-32.6 30,-30.5 48.1,-60 51.8,-84.6 C 219,104.4 205.8,65.6 177,16.5 l -3.7,-6.3 -14.8,20.7 -14.7,20.7 H 128.1 L 112.4,51.5 102.2,37 C 96.6,29.1 90,20 87.5,16.4 L 83,10.2 Z m 1,76.5 c 5.7,2.7 9.2,5.5 16.3,12.6 14.5,14.6 21.2,27.8 20.6,40.6 -0.3,6.1 -0.7,7.2 -2.9,9.5 -2.4,2.5 -3.2,2.7 -10,2.7 -6.2,0 -8.2,-0.5 -13.5,-2.9 C 74.3,156 63,145.1 55.5,131.5 47.2,116.2 47.3,101.3 56,96.6 c 4.1,-2.2 12.6,-0.9 20.7,3.1 z m 127.4,-0.6 c 2.7,3 2.7,3.2 2.4,12.3 -0.3,8.9 -0.6,9.8 -4.9,18.7 -4,8 -6,10.6 -13.7,18.4 -10.2,10.1 -19.4,15.6 -28.2,16.7 -13.5,1.5 -19,-4.7 -16.5,-18.7 4.4,-24.2 33.6,-52.2 53.1,-50.9 4.3,0.3 5.5,0.8 7.8,3.5 z"
         id="path1"
         style="fill:url(#linearGradient4)" /></g></g></g>&#10;</svg>
